<svg xmlns="http://www.w3.org/2000/svg" viewBox="0 0 210 225"><defs><linearGradient id="mthinkc" x1="0" y1="0" x2="1" y2="1"><stop offset="0" stop-color="#7A5BFF"/><stop offset="1" stop-color="#4A2FE0"/></linearGradient></defs><g transform="translate(0 10)"><ellipse cx="100" cy="204" rx="58" ry="7" fill="#1B1640" opacity="0.14"/><g transform="translate(0 0) rotate(0 100 190)"><path d="M42 112L22 136" stroke="#4A2FE0" stroke-width="13" stroke-linecap="round"/><circle cx="22" cy="136" r="8" fill="#FFF6E5"/><path d="M158 112L148 138" stroke="#4A2FE0" stroke-width="13" stroke-linecap="round"/><circle cx="148" cy="138" r="8" fill="#FFF6E5"/><rect x="66" y="176" width="26" height="16" rx="8" fill="#FFB020"/><rect x="108" y="176" width="26" height="16" rx="8" fill="#FFB020"/><rect x="48" y="50" width="120" height="130" rx="14" fill="#FFF6E5"/><path d="M58 176H160M58 171H160" stroke="#E8D9BC" stroke-width="2" stroke-linecap="round"/><rect x="38" y="40" width="120" height="130" rx="14" fill="url(#mthinkc)"/><rect x="38" y="40" width="20" height="130" rx="10" fill="#3A25B8" opacity="0.55"/><rect x="47" y="49" width="102" height="112" rx="9" fill="none" stroke="#FFFFFF" stroke-opacity="0.22" stroke-width="2.5"/><path d="M100 42Q98 24 116 18" stroke="#FFB020" stroke-width="6" fill="none" stroke-linecap="round"/><path d="M118 5 Q119.4 13.6 128 15 Q119.4 16.4 118 25 Q116.6 16.4 108 15 Q116.6 13.6 118 5Z" fill="#FFC247" opacity="1"/><circle cx="76" cy="92" r="14" fill="#fff"/><circle cx="72" cy="88" r="6.5" fill="#1B1640"/><circle cx="74.2" cy="85.6" r="2.4" fill="#fff"/><circle cx="120" cy="92" r="14" fill="#fff"/><circle cx="116" cy="88" r="6.5" fill="#1B1640"/><circle cx="118.2" cy="85.6" r="2.4" fill="#fff"/><path d="M92 121H108" stroke="#1B1640" stroke-width="4.5" stroke-linecap="round"/><path d="M108 72L130 68" stroke="#FFF6E5" stroke-width="3.5" stroke-linecap="round"/><circle cx="158" cy="30" r="17" fill="#fff" stroke="#8B7BFF" stroke-width="3"/><path d="M151 26Q151 18 159 18Q167 18 167 25Q167 30 159 33V37" stroke="#5B3DF5" stroke-width="3.6" fill="none" stroke-linecap="round"/><circle cx="159" cy="43" r="2.4" fill="#5B3DF5"/><circle cx="62" cy="112" r="6.5" fill="#F0475B" opacity="0.55"/><circle cx="134" cy="112" r="6.5" fill="#F0475B" opacity="0.55"/></g></g></svg>
