<svg xmlns="http://www.w3.org/2000/svg" viewBox="0 0 210 225"><defs><linearGradient id="mcelebratec" x1="0" y1="0" x2="1" y2="1"><stop offset="0" stop-color="#7A5BFF"/><stop offset="1" stop-color="#4A2FE0"/></linearGradient></defs><g transform="translate(0 10)"><ellipse cx="100" cy="204" rx="44" ry="7" fill="#1B1640" opacity="0.14"/><g transform="translate(0 -8) rotate(0 100 190)"><path d="M42 112L18 72" stroke="#4A2FE0" stroke-width="13" stroke-linecap="round"/><circle cx="18" cy="72" r="8" fill="#FFF6E5"/><path d="M158 112L182 72" stroke="#4A2FE0" stroke-width="13" stroke-linecap="round"/><circle cx="182" cy="72" r="8" fill="#FFF6E5"/><rect x="66" y="176" width="26" height="16" rx="8" fill="#FFB020"/><rect x="108" y="176" width="26" height="16" rx="8" fill="#FFB020"/><rect x="48" y="50" width="120" height="130" rx="14" fill="#FFF6E5"/><path d="M58 176H160M58 171H160" stroke="#E8D9BC" stroke-width="2" stroke-linecap="round"/><rect x="38" y="40" width="120" height="130" rx="14" fill="url(#mcelebratec)"/><rect x="38" y="40" width="20" height="130" rx="10" fill="#3A25B8" opacity="0.55"/><rect x="47" y="49" width="102" height="112" rx="9" fill="none" stroke="#FFFFFF" stroke-opacity="0.22" stroke-width="2.5"/><path d="M100 42Q98 24 116 18" stroke="#FFB020" stroke-width="6" fill="none" stroke-linecap="round"/><path d="M118 5 Q119.4 13.6 128 15 Q119.4 16.4 118 25 Q116.6 16.4 108 15 Q116.6 13.6 118 5Z" fill="#FFC247" opacity="1"/><path d="M63 96Q76 78 89 96M107 96Q120 78 133 96" stroke="#1B1640" stroke-width="5" fill="none" stroke-linecap="round"/><path d="M84 114Q98 146 112 114Z" fill="#1B1640"/><path d="M90 128Q98 136 106 128Q98 124 90 128Z" fill="#F0475B"/><circle cx="20" cy="40" r="5" fill="#F0475B"/><circle cx="176" cy="34" r="5" fill="#3CC8E8"/><circle cx="34" cy="14" r="4" fill="#FFB020"/><circle cx="168" cy="12" r="4" fill="#F0475B"/><circle cx="6" cy="90" r="4" fill="#3CC8E8"/><circle cx="194" cy="100" r="4" fill="#FFB020"/><rect x="50" y="6" width="9" height="5" rx="1.5" transform="rotate(-25 54 8)" fill="#3CC8E8"/><rect x="146" y="46" width="9" height="5" rx="1.5" transform="rotate(30 150 48)" fill="#F0475B"/><circle cx="62" cy="112" r="6.5" fill="#F0475B" opacity="0.55"/><circle cx="134" cy="112" r="6.5" fill="#F0475B" opacity="0.55"/></g></g></svg>
